<?xml version="1.0" encoding="UTF-8" standalone="no"?>
<svg
   id="logo"
   viewBox="0 0 544.94305 79.5168"
   height="79.5168"
   width="544.94305"
   fill="#ffffff"
   version="1.1"
   sodipodi:docname="logo.svg"
   inkscape:version="1.2.2 (732a01da63, 2022-12-09)"
   xmlns:inkscape="http://www.inkscape.org/namespaces/inkscape"
   xmlns:sodipodi="http://sodipodi.sourceforge.net/DTD/sodipodi-0.dtd"
   xmlns="http://www.w3.org/2000/svg"
   xmlns:svg="http://www.w3.org/2000/svg">
  <defs
     id="defs36" />
  <sodipodi:namedview
     id="namedview34"
     pagecolor="#ffffff"
     bordercolor="#000000"
     borderopacity="0.25"
     inkscape:showpageshadow="2"
     inkscape:pageopacity="0.0"
     inkscape:pagecheckerboard="0"
     inkscape:deskcolor="#d1d1d1"
     showgrid="false"
     inkscape:zoom="1.046875"
     inkscape:cx="462.32836"
     inkscape:cy="193.43284"
     inkscape:window-width="1920"
     inkscape:window-height="991"
     inkscape:window-x="-9"
     inkscape:window-y="-9"
     inkscape:window-maximized="1"
     inkscape:current-layer="logo" />
  <path
     id="path204815"
     style="font-style:normal;font-weight:700;font-size:72px;line-height:1;font-family:'Brandmark1 Bold';font-variant-ligatures:normal;text-align:center;text-anchor:middle;stroke-width:1.1"
     d="m 41.659203,24.7896 11.008789,39.0456 h 10.7712 l 19.7208,-61.776 h -13.1472 l -11.8008,38.2536 -10.692,-38.2536 h -11.7216 L 25.027203,40.3128 13.226403,2.0592 H 3e-6 l 19.641589,61.776 h 10.7712 z"
     fill="current"
     stroke="current" />
  <path
     id="path204817"
     style="font-style:normal;font-weight:700;font-size:72px;line-height:1;font-family:'Brandmark1 Bold';font-variant-ligatures:normal;text-align:center;text-anchor:middle;stroke-width:1.1"
     d="m 100.66196,64.3104 c 3.0096,0 5.94,-0.5544 8.7912,-1.7424 2.6928,-1.1088 5.0688,-2.772 7.128,-4.8312 2.0592,-2.0592 3.7224,-4.5144 4.8312,-7.2072 1.188,-2.772 1.8216,-5.7024 1.8216,-8.7912 0,-3.0096 -0.6336,-5.94 -1.8216,-8.7912 -1.1088,-2.6928 -2.772,-5.0688 -4.8312,-7.128 -2.0592,-2.0592 -4.5144,-3.7224 -7.128,-4.8312 -2.8512,-1.188 -5.7816,-1.8216 -8.7912,-1.8216 -3.0888,0 -6.0192,0.6336 -8.7912,1.8216 -2.6928,1.1088 -5.148,2.772 -7.2072,4.8312 -2.0592,2.0592 -3.7224,4.5144 -4.8312,7.128 -1.188,2.8512 -1.7424,5.7816 -1.7424,8.7912 0,3.0888 0.5544,6.0192 1.7424,8.7912 1.1088,2.6928 2.772,5.148 4.8312,7.2072 2.0592,2.0592 4.5144,3.7224 7.2072,4.8312 2.772,1.188 5.7024,1.7424 8.7912,1.7424 z m 0,-33.264 c 5.8608,0 10.692,4.8312 10.692,10.692 0,5.94 -4.8312,10.692 -10.692,10.692 -5.94,0 -10.692,-4.752 -10.692,-10.692 0,-5.8608 4.752,-10.692 10.692,-10.692 z"
     fill="current" />
  <path
     id="path204819"
     style="font-style:normal;font-weight:700;font-size:72px;line-height:1;font-family:'Brandmark1 Bold';font-variant-ligatures:normal;text-align:center;text-anchor:middle;stroke-width:1.1"
     d="m 127.41176,44.352 v 19.4832 h 11.88 V 44.352 c 0,-7.6824 6.2568,-13.86 13.86,-13.86 v -11.88 c -3.4848,0 -6.8112,0.6336 -9.9792,1.98 -3.0888,1.3464 -5.8608,3.168 -8.1576,5.544 -2.376,2.376 -4.2768,5.148 -5.544,8.1576 -1.3464,3.168 -2.0592,6.5736 -2.0592,10.0584 z"
     fill="current" />
  <path
     id="path204821"
     style="font-style:normal;font-weight:700;font-size:72px;line-height:1;font-family:'Brandmark1 Bold';font-variant-ligatures:normal;text-align:center;text-anchor:middle;stroke-width:1.1"
     d="M 172.12139,47.4408 182.655,63.8352 h 13.93919 l -16.1568,-25.1064 17.1864,-19.008 H 182.3382 L 167.36939,36.432 V 0 h -11.9592 v 63.8352 h 11.9592 V 52.5888 Z"
     fill="current" />
  <path
     id="path204823"
     style="font-style:normal;font-weight:700;font-size:72px;line-height:1;font-family:'Brandmark1 Bold';font-variant-ligatures:normal;text-align:center;text-anchor:middle;stroke-width:1.1"
     d="m 216.36079,64.3104 c 5.6232,0 10.9296,-1.6632 14.8104,-4.5936 2.1384,-1.6632 3.8016,-3.6432 4.9896,-5.94 1.188,-2.4552 1.8216,-5.148 1.8216,-8.0784 0,-5.3856 -1.8216,-9.5832 -5.7024,-12.672 -3.168,-2.6928 -7.4448,-4.356 -11.9592,-6.0984 -0.4752,-0.2376 -1.0296,-0.396 -1.5048,-0.6336 -3.2472,-1.188 -6.2568,-2.376 -8.1576,-3.6432 -1.2672,-0.9504 -2.1384,-1.98 -2.1384,-3.8016 0.0792,-4.0392 3.96,-5.4648 7.2864,-5.4648 3.564,0 7.8408,1.8216 11.8008,5.0688 l 2.2176,1.8216 7.6032,-9.9 -2.1384,-1.6632 c -5.8608,-4.752 -12.5928,-7.2072 -19.4832,-7.2072 -5.3064,0 -10.296,1.7424 -14.0184,4.9896 -3.8016,3.3264 -5.94,7.7616 -5.94,12.672 0,2.772 0.6336,5.3856 1.7424,7.6032 1.1088,2.0592 2.5344,3.8016 4.5936,5.3856 3.4848,2.772 7.7616,4.5144 12.276,6.1776 0.2376,0.0792 0.5544,0.1584 0.8712,0.3168 3.2472,1.188 6.0192,2.2968 7.7616,3.564 1.584,1.1088 2.1384,2.376 2.1384,4.2768 0,1.7424 -0.6336,3.0888 -2.0592,4.1184 -1.5048,1.1088 -3.96,1.7424 -6.732,1.7424 -2.376,0 -4.8312,-0.5544 -7.128,-1.6632 -2.376,-1.1088 -4.5936,-2.8512 -6.2568,-4.9104 l -2.0592,-2.6136 -8.2368,9.7416 1.6632,1.8216 c 5.7816,6.1776 13.6224,9.5832 21.9384,9.5832 z"
     fill="current" />
  <path
     id="path204825"
     style="font-style:normal;font-weight:700;font-size:72px;line-height:1;font-family:'Brandmark1 Bold';font-variant-ligatures:normal;text-align:center;text-anchor:middle;stroke-width:1.1"
     d="m 252.21364,59.6376 -7.9992,19.8792 h 12.672 l 24.0768,-59.796 h -12.7512 l -9.9,25.0272 -10.692,-25.0272 h -13.068 z"
     fill="current" />
  <path
     id="path204827"
     style="font-style:normal;font-weight:700;font-size:72px;line-height:1;font-family:'Brandmark1 Bold';font-variant-ligatures:normal;text-align:center;text-anchor:middle;stroke-width:1.1"
     d="m 316.00058,26.2944 c -3.7224,-3.8016 -8.79121,-5.8608 -14.09761,-5.8608 -2.77199,0 -5.54399,0.5544 -7.9992,1.6632 v -2.8512 h -11.88 v 19.404 c -0.0792,0.5544 -0.0792,1.188 -0.0792,1.7424 h 0.0792 v 23.4432 h 11.88 v -24.552 c 0.5544,-3.96 3.96,-6.9696 7.9992,-6.9696 4.43521,0 8.07841,3.6432 8.07841,8.0784 v 23.4432 h 11.87999 V 40.392 c 0,-5.3064 -2.05919,-10.296 -5.86079,-14.0976 z"
     fill="current" />
  <path
     id="path204829"
     style="font-style:normal;font-weight:700;font-size:72px;line-height:1;font-family:'Brandmark1 Bold';font-variant-ligatures:normal;text-align:center;text-anchor:middle;stroke-width:1.1"
     d="m 347.77339,64.3896 c 7.4448,0 14.4144,-3.6432 18.612,-9.7416 l -9.8208,-6.732 c -1.98,2.8512 -5.2272,4.5936 -8.7912,4.5936 -5.8608,0 -10.692,-4.752 -10.692,-10.692 0,-5.8608 4.8312,-10.692 10.692,-10.692 3.4848,0 6.732,1.7424 8.7912,4.5936 l 9.6624,-6.8904 c -2.0592,-2.8512 -4.752,-5.3064 -7.92,-6.9696 -3.168,-1.6632 -6.8904,-2.6136 -10.5336,-2.6136 -3.0096,0 -6.01921,0.6336 -8.7912,1.8216 -2.6928,1.1088 -5.0688,2.772 -7.2072,4.8312 -2.0592,2.0592 -3.6432,4.5144 -4.8312,7.128 -1.10881,2.8512 -1.7424,5.7816 -1.7424,8.7912 0,3.0888 0.6336,6.0192 1.7424,8.7912 1.188,2.6928 2.77199,5.148 4.8312,7.2072 2.1384,2.0592 4.5144,3.7224 7.2072,4.8312 2.77199,1.188 5.7816,1.7424 8.7912,1.7424 z"
     fill="current" />
  <path
     id="path204831"
     style="font-style:normal;font-weight:700;font-size:72px;line-height:1;font-family:'Brandmark1 Bold';font-variant-ligatures:normal;text-align:center;text-anchor:middle;stroke-width:1.1"
     d="m 375.68396,13.86 v 49.9752 h 12.4344 V 13.86 h 17.028 V 2.0592 h -46.2528 V 13.86 Z"
     fill="current" />
  <path
     id="path204833"
     style="font-style:normal;font-weight:700;font-size:72px;line-height:1;font-family:'Brandmark1 Bold';font-variant-ligatures:normal;text-align:center;text-anchor:middle;stroke-width:1.1"
     d="m 420.86509,64.3104 c 3.0096,0 5.94,-0.5544 8.7912,-1.7424 2.6928,-1.1088 5.0688,-2.772 7.128,-4.8312 2.0592,-2.0592 3.7224,-4.5144 4.8312,-7.2072 1.188,-2.772 1.8216,-5.7024 1.8216,-8.7912 0,-3.0096 -0.6336,-5.94 -1.8216,-8.7912 -1.1088,-2.6928 -2.772,-5.0688 -4.8312,-7.128 -2.0592,-2.0592 -4.5144,-3.7224 -7.128,-4.8312 -2.8512,-1.188 -5.7816,-1.8216 -8.7912,-1.8216 -3.0888,0 -6.0192,0.6336 -8.7912,1.8216 -2.6928,1.1088 -5.148,2.772 -7.2072,4.8312 -2.0592,2.0592 -3.7224,4.5144 -4.8312,7.128 -1.188,2.8512 -1.7424,5.7816 -1.7424,8.7912 0,3.0888 0.5544,6.0192 1.7424,8.7912 1.1088,2.6928 2.772,5.148 4.8312,7.2072 2.0592,2.0592 4.5144,3.7224 7.2072,4.8312 2.772,1.188 5.7024,1.7424 8.7912,1.7424 z m 0,-33.264 c 5.8608,0 10.692,4.8312 10.692,10.692 0,5.94 -4.8312,10.692 -10.692,10.692 -5.94,0 -10.692,-4.752 -10.692,-10.692 0,-5.8608 4.752,-10.692 10.692,-10.692 z"
     fill="current" />
  <path
     id="path204835"
     style="font-style:normal;font-weight:700;font-size:72px;line-height:1;font-family:'Brandmark1 Bold';font-variant-ligatures:normal;text-align:center;text-anchor:middle;stroke-width:1.1"
     d="m 467.89009,64.3104 c 3.0096,0 5.94,-0.5544 8.7912,-1.7424 2.6928,-1.1088 5.0688,-2.772 7.128,-4.8312 2.0592,-2.0592 3.7224,-4.5144 4.8312,-7.2072 1.188,-2.772 1.8216,-5.7024 1.8216,-8.7912 0,-3.0096 -0.6336,-5.94 -1.8216,-8.7912 -1.1088,-2.6928 -2.772,-5.0688 -4.8312,-7.128 -2.0592,-2.0592 -4.5144,-3.7224 -7.128,-4.8312 -2.8512,-1.188 -5.7816,-1.8216 -8.7912,-1.8216 -3.0888,0 -6.0192,0.6336 -8.7912,1.8216 -2.6928,1.1088 -5.148,2.772 -7.2072,4.8312 -2.0592,2.0592 -3.7224,4.5144 -4.8312,7.128 -1.188,2.8512 -1.7424,5.7816 -1.7424,8.7912 0,3.0888 0.5544,6.0192 1.7424,8.7912 1.1088,2.6928 2.772,5.148 4.8312,7.2072 2.0592,2.0592 4.5144,3.7224 7.2072,4.8312 2.772,1.188 5.7024,1.7424 8.7912,1.7424 z m 0,-33.264 c 5.8608,0 10.692,4.8312 10.692,10.692 0,5.94 -4.8312,10.692 -10.692,10.692 -5.94,0 -10.692,-4.752 -10.692,-10.692 0,-5.8608 4.752,-10.692 10.692,-10.692 z"
     fill="current" />
  <path
     id="path204837"
     style="font-style:normal;font-weight:700;font-size:72px;line-height:1;font-family:'Brandmark1 Bold';font-variant-ligatures:normal;text-align:center;text-anchor:middle;stroke-width:1.1"
     d="m 495.11509,3.96 v 59.8752 h 11.9592 V 0 Z"
     fill="current" />
  <path
     id="path204839"
     style="font-style:normal;font-weight:700;font-size:72px;line-height:1;font-family:'Brandmark1 Bold';font-variant-ligatures:normal;text-align:center;text-anchor:middle;stroke-width:1.1"
     d="m 511.91663,64.3104 h 18.53279 c 7.99921,0 14.49361,-6.4944 14.49361,-14.4936 0,-7.9992 -6.4944,-14.5728 -14.49361,-14.5728 h -3.3264 c -1.1088,0 -2.05919,-0.8712 -2.05919,-2.0592 0,-1.1088 0.95039,-2.0592 2.05919,-2.0592 h 16.5528 V 18.6912 h -16.5528 c -7.9992,0 -14.4936,6.4944 -14.4936,14.4936 0,7.9992 6.4944,14.4936 14.4936,14.4936 h 3.3264 c 1.10881,0 2.0592,0.9504 2.0592,2.1384 0,1.1088 -0.87119,2.0592 -2.0592,2.0592 h -18.53279 z"
     fill="current" />
</svg>
